<svg xmlns="http://www.w3.org/2000/svg" width="22" height="20" viewBox="0 0 22 20">
  <path id="cart-icon" d="M20.171,11.77l1.806-8.125A.932.932,0,0,0,21.083,2.5h-15L5.731.75a.922.922,0,0,0-.9-.75H.917A.927.927,0,0,0,0,.938v.625A.927.927,0,0,0,.917,2.5H3.586L6.269,15.915a2.2,2.2,0,0,0-1.074,1.9,2.139,2.139,0,1,0,4.278,0A2.205,2.205,0,0,0,8.83,16.25h8.007a2.205,2.205,0,0,0-.643,1.563,2.139,2.139,0,1,0,4.278,0,2.192,2.192,0,0,0-1.206-1.969l.211-.948a.932.932,0,0,0-.894-1.145H8.331l-.25-1.25h11.2A.921.921,0,0,0,20.171,11.77Z" fill="#151515"/>
</svg>
