<svg xmlns="http://www.w3.org/2000/svg" width="13.269" height="17.25" viewBox="0 0 13.269 17.25">
  <path id="lock-icon" d="M18.36,9.346h-1V7.409A3.981,3.981,0,1,0,9.4,7.355v1.99h-1A1.663,1.663,0,0,0,6.75,11v7.961a1.663,1.663,0,0,0,1.659,1.659H18.36a1.664,1.664,0,0,0,1.659-1.659V11A1.663,1.663,0,0,0,18.36,9.346Zm-4.4,5.175v2.853a.6.6,0,0,1-.551.6.581.581,0,0,1-.61-.581V14.521a1.327,1.327,0,1,1,1.161,0ZM16.2,9.346H10.565V7.355a2.82,2.82,0,0,1,5.639,0Z" transform="translate(-6.75 -3.374)" fill="#fff"/>
</svg>
