<svg xmlns="http://www.w3.org/2000/svg" width="15.75" height="18" viewBox="0 0 15.75 18">
  <path id="schedule-demo-icon" d="M15.328,5.625H.422A.422.422,0,0,1,0,5.2V3.938A1.687,1.687,0,0,1,1.688,2.25H3.375V.422A.422.422,0,0,1,3.8,0H5.2a.422.422,0,0,1,.422.422V2.25h4.5V.422A.422.422,0,0,1,10.547,0h1.406a.422.422,0,0,1,.422.422V2.25h1.688A1.687,1.687,0,0,1,15.75,3.938V5.2A.422.422,0,0,1,15.328,5.625ZM.422,6.75H15.328a.422.422,0,0,1,.422.422v9.141A1.687,1.687,0,0,1,14.063,18H1.688A1.687,1.687,0,0,1,0,16.313V7.172A.422.422,0,0,1,.422,6.75Zm11.717,3.373-.99-1a.422.422,0,0,0-.6,0l-3.728,3.7-1.616-1.63a.422.422,0,0,0-.6,0l-1,.99a.422.422,0,0,0,0,.6l2.9,2.927a.422.422,0,0,0,.6,0l5.026-4.985a.422.422,0,0,0,0-.6Z" fill="#133579"/>
</svg>
